<svg width="186" height="186" viewBox="0 0 186 186" fill="none" xmlns="http://www.w3.org/2000/svg">
<path fill-rule="evenodd" clip-rule="evenodd" d="M186 93C186 144.362 144.362 186 93 186C41.6375 186 0 144.362 0 93C0 41.6375 41.6375 0 93 0C144.362 0 186 41.6375 186 93ZM111.434 124.139H105.494C101.7 124.139 98.625 119.789 98.625 114.424C98.625 114.088 98.637 113.757 98.6604 113.43C98.637 113.757 98.6249 114.088 98.6249 114.424C98.6249 119.789 101.7 124.139 105.494 124.139H111.434C111.594 124.139 111.753 124.135 111.912 124.127C111.754 124.135 111.594 124.139 111.434 124.139ZM124.234 106.721C124.241 106.489 124.244 106.255 124.244 106.021V104.708H105.494C105.249 104.708 105.007 104.726 104.769 104.761C105.007 104.726 105.249 104.708 105.494 104.708H124.244V106.021C124.244 106.255 124.241 106.489 124.234 106.721ZM125.809 106.021V102.424H105.494C100.881 102.424 97.0593 107.731 97.0593 114.424C97.0593 121.116 100.881 126.423 105.494 126.423H111.434C119.328 126.423 125.809 117.354 125.809 106.021ZM120.931 93.7209C120.571 93.7381 120.208 93.7467 119.844 93.7467H110.483C110.157 93.7467 109.833 93.7337 109.514 93.7082C109.833 93.7337 110.157 93.7466 110.483 93.7466H119.844C120.208 93.7466 120.571 93.738 120.931 93.7209ZM142.494 75.6283V72.0318H110.483C103.216 72.0318 97.1936 77.3383 97.1936 84.031C97.1936 90.7236 103.216 96.0302 110.483 96.0302H119.844C132.281 96.0302 142.494 86.9616 142.494 75.6283ZM64.2587 93.2382C65.7874 93.5706 67.3841 93.7467 69.0267 93.7467H78.387C78.7069 93.7467 79.0234 93.7342 79.3362 93.7098C79.0234 93.7342 78.7069 93.7466 78.387 93.7466H69.0267C67.3841 93.7466 65.7874 93.5706 64.2587 93.2382ZM89.2099 84.0311C89.2099 78.6653 84.3643 74.3155 78.387 74.3155H48.8434L48.8434 74.3153H78.387C84.3644 74.3153 89.21 78.6652 89.21 84.031L89.2099 84.0311ZM48.8434 74.3155L48.8434 75.6283L48.8434 75.6284V74.3155ZM46.3766 75.6283V72.0318H78.387C85.6547 72.0318 91.6768 77.3383 91.6768 84.031C91.6768 90.7236 85.6547 96.0302 78.387 96.0302H69.0267C56.5894 96.0302 46.3766 86.9616 46.3766 75.6283ZM87.8329 149.217C76.6539 149.217 67.5915 138.993 67.5915 126.381V115.791C67.5915 109.028 72.451 103.546 78.4456 103.546C84.4402 103.546 89.2997 109.028 89.2997 115.791V149.217L87.8329 149.217ZM87.7739 151.958H91.7666V115.812C91.7666 107.605 85.8755 100.805 78.4456 100.805C71.0158 100.805 65.1247 107.605 65.1247 115.812V126.381C65.1247 140.425 75.1922 151.958 87.7739 151.958ZM48.8843 76.792C48.8798 76.7277 48.8757 76.6634 48.8719 76.5989L48.8719 76.5988C48.8756 76.6633 48.8798 76.7277 48.8843 76.792ZM67.6598 126.381C67.6598 138.559 76.0886 148.505 86.6963 149.14C87.0531 149.161 87.4124 149.172 87.7739 149.172H89.2314L89.2314 115.812C89.2314 109.062 84.4025 103.591 78.4456 103.591C72.4888 103.591 67.6598 109.062 67.6598 115.812V126.381ZM124.226 106.992C124.215 107.28 124.199 107.567 124.179 107.852C124.201 107.545 124.217 107.234 124.228 106.922L124.226 106.992ZM105.548 50.8169C105.548 57.6106 100.04 63.118 93.2466 63.118C86.4529 63.118 80.9456 57.6106 80.9456 50.8169C80.9456 44.0232 86.4529 38.5159 93.2466 38.5159C100.04 38.5159 105.548 44.0232 105.548 50.8169Z" fill="#08252D"/>
</svg>
